<svg width="71" height="60" viewBox="0 0 71 60" fill="none" xmlns="http://www.w3.org/2000/svg">
<path d="M36.5813 41.5386V9.40186" stroke="#3DB4D3" stroke-width="4" stroke-miterlimit="10" stroke-linecap="round" stroke-linejoin="round"/>
<path d="M36.5812 53.3335C33.8462 50.5984 28.0342 48.7181 21.1966 48.7181C16.0684 48.7181 11.453 49.7437 8.37611 51.4531C7.17953 52.1369 5.81201 51.2822 5.81201 49.9147V10.5984C5.81201 9.74373 6.15389 8.71809 6.83765 8.20527C9.91458 5.29929 15.2137 3.41895 21.1966 3.41895C23.9317 3.41895 26.6667 3.76083 28.8889 4.61553" stroke="#3DB4D3" stroke-width="4" stroke-miterlimit="10" stroke-linecap="round" stroke-linejoin="round"/>
<path d="M36.5813 9.40186V41.5386" stroke="#3DB4D3" stroke-width="4" stroke-miterlimit="10" stroke-linecap="round" stroke-linejoin="round"/>
<path d="M36.5813 53.3335C39.3163 50.5984 45.1283 48.7181 51.9659 48.7181C57.0941 48.7181 61.7095 49.7437 64.7864 51.4531C65.983 52.1369 67.3505 51.2822 67.3505 49.9147V10.5984C67.3505 9.74373 67.0087 8.71809 66.3249 8.20527C63.4189 5.29929 58.1198 3.41895 51.9659 3.41895C45.1283 3.41895 39.3163 5.81211 36.5813 9.40185" stroke="#3DB4D3" stroke-width="4" stroke-miterlimit="10" stroke-linecap="round" stroke-linejoin="round"/>
<g opacity="0.1">
<g opacity="0.1">
<path opacity="0.1" d="M34.1882 44.9574V12.6497" stroke="#3DB4D3" stroke-width="4" stroke-miterlimit="10" stroke-linecap="round" stroke-linejoin="round"/>
<path opacity="0.1" d="M34.1882 56.5813C31.4531 53.8462 25.6412 51.9659 18.8036 51.9659C13.6754 51.9659 9.05997 52.9915 5.98305 54.7009C4.78647 55.5556 3.41895 54.7009 3.41895 53.3334V14.0172C3.41895 13.1625 3.76083 12.1368 4.44459 11.624C7.52151 8.54709 12.8207 6.66675 18.8036 6.66675C21.5386 6.66675 24.2736 7.00863 26.4959 7.86333" stroke="#3DB4D3" stroke-width="4" stroke-miterlimit="10" stroke-linecap="round" stroke-linejoin="round"/>
</g>
<g opacity="0.1">
<path opacity="0.1" d="M34.1882 12.6497V44.9574" stroke="#3DB4D3" stroke-width="4" stroke-miterlimit="10" stroke-linecap="round" stroke-linejoin="round"/>
<path opacity="0.1" d="M34.1882 56.5813C36.9233 53.8462 42.7352 51.9659 49.5728 51.9659C54.7011 51.9659 59.3164 52.9915 62.3934 54.7009C63.5899 55.3847 64.9575 54.53 64.9575 53.1625V13.8462C64.9575 12.9915 64.6156 11.9659 63.9318 11.4531C60.8549 8.54709 55.5558 6.66675 49.5728 6.66675C42.7352 6.66675 36.9233 9.05991 34.1882 12.6497" stroke="#3DB4D3" stroke-width="4" stroke-miterlimit="10" stroke-linecap="round" stroke-linejoin="round"/>
</g>
</g>
</svg>
