<svg width="61" height="60" viewBox="0 0 61 60" fill="none" xmlns="http://www.w3.org/2000/svg">
<path d="M31.4287 38.6467V54.1354" stroke="#3DB4D3" stroke-width="4" stroke-miterlimit="10" stroke-linecap="round" stroke-linejoin="round"/>
<path d="M23.3082 3.00757H43.7594C46.3158 3.00757 48.2706 4.96246 48.2706 7.51885V21.0527C48.2706 30.376 40.7518 38.797 31.4285 38.797C22.1052 38.797 14.5864 30.376 14.5864 21.0527V5.56396" stroke="#3DB4D3" stroke-width="4" stroke-miterlimit="10" stroke-linecap="round" stroke-linejoin="round"/>
<path d="M43.7593 51.2783C43.7593 52.9325 42.5563 54.1355 41.0525 54.1355H21.654C20.1503 54.1355 18.9473 52.9325 18.9473 51.4287V51.2783" stroke="#3DB4D3" stroke-width="4" stroke-miterlimit="10" stroke-linecap="round" stroke-linejoin="round"/>
<path d="M57.594 10.5264V24.8121" stroke="#3DB4D3" stroke-width="4" stroke-miterlimit="10" stroke-linecap="round" stroke-linejoin="round"/>
<path d="M5.11279 24.8121V10.5264" stroke="#3DB4D3" stroke-width="4" stroke-miterlimit="10" stroke-linecap="round" stroke-linejoin="round"/>
<g opacity="0.1">
<g opacity="0.1">
<path opacity="0.1" d="M29.1731 41.6543V56.9926" stroke="#3DB4D3" stroke-width="4" stroke-miterlimit="10" stroke-linecap="round" stroke-linejoin="round"/>
<path opacity="0.1" d="M21.203 5.86475H41.6541C44.2105 5.86475 46.1654 7.81963 46.1654 10.376V23.9099C46.1654 33.2332 38.6466 41.6542 29.3233 41.6542C20 41.6542 12.4812 33.2332 12.4812 23.9099V8.42114" stroke="#3DB4D3" stroke-width="4" stroke-miterlimit="10" stroke-linecap="round" stroke-linejoin="round"/>
<path opacity="0.1" d="M41.6541 54.1355C41.6541 55.7896 40.4511 56.9926 38.9473 56.9926H19.5488C18.045 56.9926 16.842 55.7896 16.842 54.2859V54.1355" stroke="#3DB4D3" stroke-width="4" stroke-miterlimit="10" stroke-linecap="round" stroke-linejoin="round"/>
</g>
<g opacity="0.1">
<path opacity="0.1" d="M55.4888 13.3835V27.6693" stroke="#3DB4D3" stroke-width="4" stroke-miterlimit="10" stroke-linecap="round" stroke-linejoin="round"/>
<path opacity="0.1" d="M3.00757 27.6693V13.3835" stroke="#3DB4D3" stroke-width="4" stroke-miterlimit="10" stroke-linecap="round" stroke-linejoin="round"/>
</g>
</g>
</svg>
