<svg width="63" height="60" viewBox="0 0 63 60" fill="none" xmlns="http://www.w3.org/2000/svg">
<path d="M21.1941 26.7163V54.179" stroke="#3DB4D3" stroke-width="4" stroke-miterlimit="10" stroke-linecap="round" stroke-linejoin="round"/>
<path d="M29.5523 54.0299H50.0001C53.2836 54.0299 55.9702 51.6418 56.418 48.5075L59.5523 28.5075C60.1493 24.6269 57.1642 21.1941 53.2836 21.1941H38.5075V9.40302C38.5075 5.82093 35.6717 2.98511 32.0896 2.98511H31.9404C30.2986 2.98511 28.806 4.17914 28.5075 5.97018C27.612 11.7911 25.6717 17.4627 23.1344 22.8359L21.1941 26.7164H10.0001C7.76126 26.7164 5.97021 28.5075 5.97021 30.7463V50C5.97021 52.2388 7.76126 54.0299 10.0001 54.0299H21.1941" stroke="#3DB4D3" stroke-width="4" stroke-miterlimit="10" stroke-linecap="round" stroke-linejoin="round"/>
<g opacity="0.15">
<g opacity="0.15">
<path opacity="0.15" d="M18.209 29.5522V57.0149" stroke="#3DB4D3" stroke-width="4" stroke-miterlimit="10" stroke-linecap="round" stroke-linejoin="round"/>
<path opacity="0.15" d="M26.5672 57.0151H47.015C50.2985 57.0151 52.9851 54.627 53.4329 51.4927L56.5672 31.4927C57.1642 27.6121 54.1791 24.1793 50.2985 24.1793H35.5224V12.239C35.5224 8.65687 32.6866 5.82104 29.1045 5.82104H28.9553C27.3135 5.82104 25.8209 7.01507 25.5224 8.80612C24.6269 14.627 22.6866 20.2987 20.1493 25.6718L18.209 29.5524H7.01496C4.77615 29.5524 2.98511 31.3434 2.98511 33.5822V52.836C2.98511 55.0748 4.77615 56.8658 7.01496 56.8658H18.209" stroke="#3DB4D3" stroke-width="4" stroke-miterlimit="10" stroke-linecap="round" stroke-linejoin="round"/>
</g>
</g>
</svg>
