<svg width="57" height="60" viewBox="0 0 57 60" fill="none" xmlns="http://www.w3.org/2000/svg">
<path d="M4.86865 54.4153V8.59194C4.86865 5.44158 7.44622 2.86401 10.5966 2.86401H18.6157H47.8281C50.9784 2.86401 53.556 5.44158 53.556 8.59194V48.6874C53.556 51.8378 50.9784 54.4153 47.8281 54.4153H14.7493" stroke="#3DB4D3" stroke-width="4" stroke-miterlimit="10" stroke-linecap="round" stroke-linejoin="round"/>
<path d="M18.7588 38.5203H26.0619" stroke="#3DB4D3" stroke-width="4" stroke-miterlimit="10" stroke-linecap="round" stroke-linejoin="round"/>
<path d="M18.7588 28.6396H39.3793" stroke="#3DB4D3" stroke-width="4" stroke-miterlimit="10" stroke-linecap="round" stroke-linejoin="round"/>
<path d="M18.7588 18.759H39.8089" stroke="#3DB4D3" stroke-width="4" stroke-miterlimit="10" stroke-linecap="round" stroke-linejoin="round"/>
<g opacity="0.1">
<path opacity="0.1" d="M2.86401 57.136V11.3126C2.86401 8.16228 5.44158 5.58472 8.59194 5.58472H16.611H45.8234C48.9738 5.58472 51.5514 8.16228 51.5514 11.3126V51.4081C51.5514 54.5585 48.9738 57.136 45.8234 57.136H12.7447" stroke="#3DB4D3" stroke-width="4" stroke-miterlimit="10" stroke-linecap="round" stroke-linejoin="round"/>
<g opacity="0.1">
<path opacity="0.1" d="M16.6111 41.3843H23.9142" stroke="#3DB4D3" stroke-width="4" stroke-miterlimit="10" stroke-linecap="round" stroke-linejoin="round"/>
<path opacity="0.1" d="M16.6111 31.3604H37.3748" stroke="#3DB4D3" stroke-width="4" stroke-miterlimit="10" stroke-linecap="round" stroke-linejoin="round"/>
<path opacity="0.1" d="M16.6111 21.4797H37.8044" stroke="#3DB4D3" stroke-width="4" stroke-miterlimit="10" stroke-linecap="round" stroke-linejoin="round"/>
</g>
</g>
</svg>
