<svg width="60" height="60" viewBox="0 0 60 60" fill="none" xmlns="http://www.w3.org/2000/svg">
<path d="M9.28585 38.2858L5.42871 54.2858L21.4287 50.4287L54.2859 17.4287C57.5716 14.143 57.5716 8.71439 54.2859 5.28582C51.0001 2.0001 45.5716 2.0001 42.143 5.28582L9.28585 38.2858Z" stroke="#3DB4D3" stroke-width="4" stroke-miterlimit="10" stroke-linecap="round" stroke-linejoin="round"/>
<path d="M41.5715 13.1431L48.143 19.7145" stroke="#3DB4D3" stroke-width="4" stroke-miterlimit="10" stroke-linecap="round" stroke-linejoin="round"/>
<path d="M6.85718 48.1431L11.4286 52.8573" stroke="#3DB4D3" stroke-width="4" stroke-miterlimit="10" stroke-linecap="round" stroke-linejoin="round"/>
<path d="M26.7144 54.2859H56.8572" stroke="#3DB4D3" stroke-width="4" stroke-miterlimit="10" stroke-linecap="round" stroke-linejoin="round"/>
<g opacity="0.15">
<g opacity="0.15">
<g opacity="0.15">
<path opacity="0.15" d="M6.71432 41.143L2.85718 57.143L18.8572 53.2859L51.8572 20.2859C55.1429 17.0001 55.1429 11.5716 51.8572 8.143C48.5715 4.85728 43.1429 4.85728 39.7143 8.143L6.71432 41.143Z" stroke="#3DB4D3" stroke-width="4" stroke-miterlimit="10" stroke-linecap="round" stroke-linejoin="round"/>
<path opacity="0.15" d="M39.1428 16.0002L45.7142 22.5717" stroke="#3DB4D3" stroke-width="4" stroke-miterlimit="10" stroke-linecap="round" stroke-linejoin="round"/>
</g>
<path opacity="0.15" d="M4.28564 51.0002L8.99993 55.5717" stroke="#3DB4D3" stroke-width="4" stroke-miterlimit="10" stroke-linecap="round" stroke-linejoin="round"/>
</g>
<path opacity="0.15" d="M24.2856 57.1431H54.2856" stroke="#3DB4D3" stroke-width="4" stroke-miterlimit="10" stroke-linecap="round" stroke-linejoin="round"/>
</g>
</svg>
