<svg width="61" height="60" viewBox="0 0 61 60" fill="none" xmlns="http://www.w3.org/2000/svg">
<path d="M32.0765 49.6898L36.802 54.4153L38.95 52.2673C40.5252 50.6922 41.3844 48.5442 41.5276 46.3962L41.6708 37.0883L49.117 29.642C56.1338 22.6253 58.7113 12.7447 56.5634 3.57998C47.5419 1.57521 37.6612 4.00958 30.5013 11.0263L23.055 18.4726L13.7471 18.6158C11.456 18.6158 9.45118 19.6182 7.876 21.1933L5.72803 23.3413L10.5968 28.2101" stroke="#3DB4D3" stroke-width="4" stroke-miterlimit="10" stroke-linecap="round" stroke-linejoin="round"/>
<path d="M44.8212 15.3222C46.9692 17.4701 46.6828 21.3365 43.5324 23.0549C42.2437 23.7709 40.5253 23.7709 39.2365 23.0549C36.2293 21.4797 35.7997 17.6133 37.9477 15.3222C38.0909 15.179 38.2341 15.0358 38.3773 14.8926" stroke="#3DB4D3" stroke-width="4" stroke-miterlimit="10" stroke-linecap="round" stroke-linejoin="round"/>
<path d="M20.6206 31.9331L12.1719 40.3818" stroke="#3DB4D3" stroke-width="4" stroke-miterlimit="10" stroke-linecap="round" stroke-linejoin="round"/>
<path d="M28.0668 39.6658L21.4797 46.1097" stroke="#3DB4D3" stroke-width="4" stroke-miterlimit="10" stroke-linecap="round" stroke-linejoin="round"/>
<g opacity="0.15">
<g opacity="0.15">
<path opacity="0.15" d="M29.3557 52.4105L34.0812 57.136L36.2292 54.988C37.8043 53.4129 38.6635 51.2649 38.8067 49.1169L38.9499 39.809L46.3962 32.3627C53.4129 25.346 55.9905 15.4654 53.8425 6.30069C44.6779 4.29591 34.7972 6.73028 27.6373 13.747L20.191 21.1933L10.8831 21.3365C8.59194 21.3365 6.58716 22.3389 5.01199 23.9141L2.86401 26.062L7.73275 30.9308" stroke="#3DB4D3" stroke-width="4" stroke-miterlimit="10" stroke-linecap="round" stroke-linejoin="round"/>
<path opacity="0.15" d="M41.9572 18.0429C44.1052 20.1908 43.8188 24.0572 40.6684 25.7756C39.3796 26.4916 37.6613 26.4916 36.3725 25.7756C33.3653 24.2004 32.9357 20.334 35.0837 18.0429C35.2269 17.8997 35.3701 17.7565 35.5133 17.6133" stroke="#3DB4D3" stroke-width="4" stroke-miterlimit="10" stroke-linecap="round" stroke-linejoin="round"/>
<g opacity="0.15">
<path opacity="0.15" d="M17.7565 34.7971L9.30786 43.2458" stroke="#3DB4D3" stroke-width="4" stroke-miterlimit="10" stroke-linecap="round" stroke-linejoin="round"/>
<path opacity="0.15" d="M25.2028 42.3867L18.6157 48.9738" stroke="#3DB4D3" stroke-width="4" stroke-miterlimit="10" stroke-linecap="round" stroke-linejoin="round"/>
</g>
</g>
</g>
</svg>
