<svg width="29" height="31" viewBox="0 0 29 31" fill="none" xmlns="http://www.w3.org/2000/svg">
<path d="M6.9984 27.25C6.9984 26.7575 7.16564 26.2239 6.95659 25.8545C6.74753 25.5262 6.16218 25.403 5.74406 25.1978C3.52807 24.0486 1.81381 22.4068 0.935779 20.1083C0.559479 19.2053 0.434045 18.1792 0.2668 17.1942C0.0995557 16.2091 0.0577444 15.224 0.0159332 14.239C-0.0676891 12.1047 0.183178 9.97037 0.643101 7.87711C0.893968 6.68683 1.52114 5.66072 2.27374 4.75775C3.44445 3.3212 4.86603 2.13091 6.66391 1.55629C7.70919 1.22794 8.79628 1.06376 9.88337 0.940631C11.3468 0.776453 12.852 0.65332 14.3154 0.65332C15.7787 0.65332 17.2421 0.776453 18.7055 0.899586C19.6672 0.981675 20.6288 1.14585 21.5905 1.35107C23.2629 1.72047 24.6427 2.66449 25.8552 3.81373C27.026 4.92193 27.9876 6.23534 28.3221 7.83607C28.8238 10.1756 29.1165 12.5151 28.9075 14.8957C28.782 16.3322 28.6148 17.7277 28.3639 19.1643C28.0712 20.8061 27.1514 22.0784 25.9807 23.2277C24.7682 24.459 23.3884 25.4441 21.6323 25.8135C20.2944 26.1008 18.9146 26.2239 17.5766 26.3881C16.8658 26.4702 16.1132 26.5112 15.3606 26.5112C14.5244 26.5112 13.6464 26.4702 12.8102 26.4702C12.6011 26.4702 12.3084 26.5933 12.1412 26.7575C11.1795 27.7015 10.3015 28.6455 9.38164 29.5895C8.71266 30.2462 7.79281 30.2873 7.29108 29.6306C7.08202 29.3433 6.9984 28.9328 6.95659 28.6045C6.95659 28.1119 6.9984 27.7015 6.9984 27.25ZM8.16911 25.9776C8.16911 26.3881 8.16911 26.7985 8.16911 27.209C8.16911 27.6194 8.16911 28.0299 8.16911 28.4403C8.16911 28.5634 8.25274 28.7276 8.33636 28.7687C8.41998 28.8097 8.58722 28.6866 8.67085 28.6045C8.75447 28.5634 8.79628 28.4813 8.8799 28.3993C10.3015 26.9627 11.6813 25.5672 13.1028 24.1717C13.2701 24.0075 13.5209 23.8844 13.7718 23.8844C15.7787 23.8844 17.7857 23.7202 19.7926 23.4739C20.9633 23.3098 22.0504 23.0225 23.0121 22.2837C24.2664 21.2986 25.4371 20.2314 25.7298 18.6307C26.0225 17.1121 26.1897 15.5524 26.2734 13.9927C26.3152 12.7203 26.1479 11.4069 26.0225 10.1346C25.8971 8.78009 25.5626 7.46667 24.5591 6.35848C23.5556 5.25028 22.4267 4.22417 20.8797 3.93686C19.3745 3.64955 17.8693 3.48538 16.3223 3.40329C13.8136 3.28015 11.2631 3.36224 8.79628 3.81373C6.12036 4.26522 4.28067 5.78386 3.36083 8.24651C2.94272 9.35471 2.85909 10.586 2.77547 11.7763C2.69185 13.295 2.73366 14.8546 2.85909 16.3733C2.9009 17.2763 3.02634 18.2203 3.36083 19.0822C4.11343 21.0934 5.61863 22.4068 7.62557 23.1866C8.00187 23.3508 8.16911 23.515 8.16911 23.9254C8.1273 24.5411 8.16911 25.2799 8.16911 25.9776Z" fill="white"/>
<path d="M15.6532 17.2354C15.8205 17.1533 16.0295 17.0712 16.1968 16.948C16.4059 16.7839 16.5313 16.5376 16.7403 16.3734C17.1585 15.963 17.6602 15.7988 18.1619 16.0861C19.0818 16.7018 20.0016 17.3174 20.8797 18.0152C21.2141 18.2615 21.3396 18.6309 21.1305 19.0413C20.6706 20.0674 20.0016 20.8883 18.8309 21.2167C18.6637 21.2577 18.4964 21.2577 18.3292 21.2167C14.4407 19.8622 11.1794 17.7279 9.00526 14.1981C8.25266 13.0078 7.70911 11.6944 7.08194 10.422C6.74745 9.80634 6.87289 9.23172 7.24919 8.6571C7.70911 8.0004 8.29447 7.50786 9.00526 7.17951C9.42337 6.97429 9.8833 7.01533 10.176 7.38473C10.845 8.20562 11.4721 9.06755 12.0575 9.97052C12.4756 10.6272 12.2665 11.1608 11.6812 11.6533C11.5557 11.7354 11.4721 11.8175 11.3467 11.8996C10.9704 12.1869 10.8868 12.5563 11.054 12.9668C11.7648 14.8958 13.061 16.3324 15.0679 17.0712C15.2351 17.1533 15.4024 17.1533 15.6532 17.2354Z" fill="white"/>
<path d="M21.6744 13.4591C21.6744 13.5822 21.758 13.7464 21.7162 13.8695C21.6326 14.0337 21.5071 14.28 21.3399 14.321C21.2145 14.3621 20.9218 14.1158 20.88 13.9927C20.7545 13.5822 20.7545 13.1718 20.7127 12.7614C20.5455 10.3397 18.664 8.04127 16.2808 7.46665C15.779 7.34352 15.2355 7.30247 14.6919 7.22038C14.5665 7.22038 14.4829 7.17934 14.3574 7.17934C14.0648 7.1383 13.8557 7.05621 13.8557 6.72785C13.8975 6.35846 14.1902 6.27637 14.4829 6.27637C17.7023 6.3995 20.4619 8.20544 21.3817 11.4479C21.549 12.1046 21.6326 12.8024 21.7162 13.4591C21.7162 13.4181 21.7162 13.4591 21.6744 13.4591Z" fill="white"/>
<path d="M19.8761 13.0078C19.8343 13.0899 19.8761 13.2541 19.7925 13.3362C19.667 13.4593 19.4998 13.6235 19.3326 13.6235C19.2071 13.6235 18.9981 13.4183 18.9981 13.2951C18.8726 12.8436 18.8726 12.3101 18.7472 11.8586C18.3291 10.2989 16.9911 9.23173 15.3187 9.06755C15.1515 9.06755 15.026 9.02651 14.8588 8.98547C14.6079 8.94442 14.4407 8.78024 14.4825 8.53398C14.5243 8.24667 14.7333 8.12354 14.9842 8.12354C17.4511 8.28771 19.5416 9.80635 19.8343 12.4742C19.8343 12.5974 19.8761 12.8026 19.8761 13.0078Z" fill="white"/>
<path d="M15.5696 9.97021C16.9911 10.0113 18.0783 11.2015 17.9946 12.515C17.9946 12.8023 17.8692 13.0485 17.5765 13.0075C17.4093 12.9664 17.242 12.7612 17.0748 12.597C17.033 12.556 17.0748 12.4739 17.0748 12.4329C16.8657 11.3657 16.573 11.0784 15.4441 10.8732C15.1514 10.8321 14.9424 10.668 14.9424 10.3807C14.9842 10.0933 15.1933 9.97021 15.4859 9.97021C15.5696 9.97021 15.6114 9.97021 15.5696 9.97021Z" fill="white"/>
</svg>
